<svg id="man" xmlns="http://www.w3.org/2000/svg" xmlns:xlink="http://www.w3.org/1999/xlink" viewBox="0 0 51.148 51.148">
  <defs>
    <style>
      .cls-1 {
        fill: #f3e4b2;
      }

      .cls-2 {
        clip-path: url(#clip-path);
      }

      .cls-3 {
        fill: #ecc19c;
      }

      .cls-4 {
        fill: #eb6d4a;
      }

      .cls-5 {
        fill: #543e36;
      }

      .cls-6 {
        fill: #c34628;
      }
    </style>
    <clipPath id="clip-path">
      <circle id="Ellipse_34" data-name="Ellipse 34" cx="25.574" cy="25.574" r="25.574"/>
    </clipPath>
  </defs>
  <g id="Group_10" data-name="Group 10">
    <circle id="Ellipse_33" data-name="Ellipse 33" class="cls-1" cx="25.574" cy="25.574" r="25.574" transform="translate(0 0)"/>
    <g id="Group_2" data-name="Group 2" class="cls-2" transform="translate(0 0)">
      <path id="Path_110" data-name="Path 110" class="cls-3" d="M75.012,22.307v8.5c0,.123,0,.246-.006.369,0,.1-.005.2-.011.3s-.008.179-.017.268c0,.064-.008.129-.014.193,0,.039-.006.075-.011.115-.005.07-.011.142-.022.212-.011.134-.028.266-.048.4,0,.034-.008.067-.014.1-.008.067-.02.134-.031.2v.008c-.017.1-.033.193-.05.291-.025.134-.05.268-.078.4,0,.006,0,.011-.005.017a.454.454,0,0,1-.011.059c0,.006,0,.011-.006.017-.014.073-.031.142-.048.212a.544.544,0,0,1-.022.092c-.008.05-.023.1-.033.151-.008.028-.014.059-.025.086s-.014.051-.02.073c-.059.229-.126.453-.2.676-.034.106-.067.21-.1.316,0,.011-.008.022-.011.033l-.1.285c-.011.028-.022.056-.033.086-.034.089-.067.179-.1.268-.042.109-.087.215-.131.322s-.081.19-.123.285c-.005.017-.014.031-.02.048-.048.1-.092.2-.14.3s-.1.207-.151.31c-.1.2-.21.408-.319.606l-.151.268a16.452,16.452,0,0,1-1.428,2.079q-.1.138-.218.268c-.1.126-.21.249-.316.369s-.19.212-.288.316q-.4.432-.822.819c-.056.056-.114.106-.173.159-.1.086-.19.17-.288.251-.075.067-.154.131-.232.2-.2.165-.4.324-.606.472-.084.064-.17.126-.257.185-.14.1-.282.2-.425.288-.078.053-.159.1-.24.151-.285.176-.573.338-.858.478-.07.036-.14.07-.21.1s-.142.067-.218.1q-.138.063-.277.117a.9.9,0,0,1-.109.042c-.109.045-.221.086-.33.123-.137.051-.277.092-.413.131-.1.028-.193.053-.288.075a.039.039,0,0,1-.02.006c-.1.023-.19.045-.285.062a.733.733,0,0,1-.075.014c-.078.014-.157.028-.235.036a3.345,3.345,0,0,1-.335.036.772.772,0,0,1-.114.008c-.089.005-.179.008-.266.008h-.008c-.086,0-.173,0-.26-.008a.6.6,0,0,1-.1-.008c-.078,0-.159-.011-.243-.022a.322.322,0,0,1-.053-.006c-.1-.014-.207-.031-.313-.05-.089-.014-.179-.034-.271-.056a8.054,8.054,0,0,1-1.467-.494,10.738,10.738,0,0,1-1.283-.676c-.215-.131-.43-.271-.643-.419-.106-.076-.212-.151-.319-.229q-.5-.365-.987-.794c-.089-.081-.179-.162-.268-.246s-.179-.165-.266-.246q-.327-.314-.637-.654-.122-.13-.243-.268c-.223-.251-.441-.511-.648-.783-.081-.1-.157-.2-.232-.3q-.424-.562-.8-1.171c-.067-.109-.134-.22-.2-.33-.078-.131-.154-.266-.229-.4a15.24,15.24,0,0,1-.76-1.565c-.034-.078-.067-.157-.1-.235-.045-.1-.084-.2-.12-.3q-.084-.222-.159-.444c-.05-.148-.1-.3-.145-.45s-.086-.291-.126-.439-.087-.316-.123-.478c0-.017-.008-.034-.011-.051q-.08-.335-.142-.679c-.056-.3-.1-.609-.134-.92-.014-.1-.023-.2-.031-.293s-.02-.2-.025-.307c-.014-.187-.022-.378-.028-.568,0-.123-.006-.246-.006-.369v-8.5a11.379,11.379,0,0,1,11.37-11.378h.011a11.5,11.5,0,0,1,2.521.279,11.383,11.383,0,0,1,8.854,11C75.012,22.24,75.012,22.274,75.012,22.307Z" transform="translate(-38.048 -7.958)"/>
    </g>
    <g id="Group_3" data-name="Group 3" class="cls-2" transform="translate(0 0)">
      <path id="Path_111" data-name="Path 111" class="cls-3" d="M69.227,143.765v0H39.575v0a14.75,14.75,0,0,1,.791-4.788q.138-.407.3-.8v0c.106-.266.223-.525.346-.782a14.654,14.654,0,0,1,1.806-2.879c.179-.221.36-.436.548-.643.092-.106.19-.209.288-.313s.2-.2.3-.3a14.727,14.727,0,0,1,1.6-1.381c.282-.21.567-.405.864-.6s.6-.366.906-.534a.018.018,0,0,1,.011-.005c.12-.064.238-.134.355-.207a8.848,8.848,0,0,0,1-.7,9.347,9.347,0,0,0,3.538-7.337l2.16.011,2.222.011a9.339,9.339,0,0,0,3.513,7.317,7.593,7.593,0,0,0,.62.459c.023.017.042.03.064.045.1.067.2.134.307.2s.232.14.349.2a.138.138,0,0,1,.05.025c.246.137.489.279.727.428.115.07.229.142.341.223.232.148.458.31.679.478a0,0,0,0,0,0,0h0c.282.21.556.433.825.663s.525.469.774.718A14.748,14.748,0,0,1,69.227,143.765Z" transform="translate(-28.817 -89.193)"/>
    </g>
    <g id="Group_4" data-name="Group 4" class="cls-2" transform="translate(0 0)">
      <path id="Path_112" data-name="Path 112" class="cls-4" d="M69.224,163.4H39.572a14.749,14.749,0,0,1,.791-4.788q.138-.407.3-.8v0c.106-.266.224-.525.347-.783a14.658,14.658,0,0,1,1.806-2.879c.179-.221.361-.436.548-.643.092-.106.19-.21.288-.313s.2-.2.3-.3a14.722,14.722,0,0,1,1.6-1.381c.282-.21.567-.405.864-.6.154-.1.307-.193.464-.285s.294-.171.442-.252a.009.009,0,0,1,.011,0v0c.12-.067.238-.134.355-.2a8.637,8.637,0,0,0,1-.7l.006.006a7.968,7.968,0,0,0,5.7,2.407h.023a7.984,7.984,0,0,0,5.713-2.4l0,0a7.515,7.515,0,0,0,.618.461c.022.017.042.03.064.045.1.067.2.131.307.2s.232.137.349.2a.279.279,0,0,1,.05.025c.131.073.266.148.394.226.112.067.224.134.333.2s.229.142.341.223c.232.148.458.31.679.478h.006c.282.212.559.433.825.665s.525.47.774.719A14.75,14.75,0,0,1,69.224,163.4Z" transform="translate(-28.814 -108.826)"/>
    </g>
    <g id="Group_5" data-name="Group 5" class="cls-2" transform="translate(0 0)">
      <path id="Path_113" data-name="Path 113" class="cls-5" d="M75.012,84.05c0,.123,0,.246-.006.369,0,.1-.005.2-.011.3s-.008.179-.017.268c0,.064-.008.129-.014.193,0,.039-.006.075-.011.115-.005.07-.011.142-.022.212-.014.134-.028.268-.048.4,0,.034-.008.067-.014.1-.008.067-.02.134-.031.2-.014.1-.033.2-.05.3-.022.117-.045.232-.07.346a.535.535,0,0,1-.014.07c0,.019-.008.039-.011.059s0,.011-.006.017a.147.147,0,0,1-.005.036c-.014.059-.025.117-.042.176a.545.545,0,0,1-.022.092,1.662,1.662,0,0,1-.042.162.35.35,0,0,1-.017.075c-.006.025-.014.051-.02.073-.059.229-.126.453-.2.676-.034.106-.067.21-.1.316,0,.011-.008.022-.011.033l-.1.285c-.011.028-.022.056-.033.086-.034.089-.067.179-.1.268-.042.109-.087.215-.131.322s-.081.19-.123.285c-.005.017-.014.031-.02.048-.048.1-.092.2-.14.3s-.1.207-.151.31c-.1.2-.21.408-.319.606l-.151.268A16.45,16.45,0,0,1,71.53,93.5q-.1.138-.218.268c-.1.126-.21.249-.316.369s-.19.212-.288.316q-.4.432-.822.819c-.056.056-.114.106-.173.159-.1.086-.19.17-.288.251-.075.067-.154.131-.232.2-.2.165-.4.324-.606.472-.084.064-.17.126-.257.185-.14.1-.282.2-.425.288-.078.053-.159.1-.24.151-.285.176-.573.338-.858.478-.07.036-.14.07-.21.1s-.142.067-.218.1q-.138.063-.277.117a.9.9,0,0,1-.109.042c-.109.045-.221.086-.33.123-.137.051-.277.092-.413.131-.1.028-.193.053-.288.075a.039.039,0,0,1-.02.006c-.1.023-.19.045-.285.062a.727.727,0,0,1-.075.014c-.078.014-.157.028-.235.036a3.344,3.344,0,0,1-.335.036.771.771,0,0,1-.114.008c-.089.005-.179.008-.266.008h-.008c-.086,0-.173,0-.26-.008a.6.6,0,0,1-.1-.008c-.078,0-.159-.011-.243-.022a.323.323,0,0,1-.053-.006c-.1-.014-.207-.031-.313-.05-.089-.014-.179-.034-.271-.056a8.055,8.055,0,0,1-1.467-.494,10.738,10.738,0,0,1-1.283-.676c-.215-.129-.428-.268-.643-.419-.106-.076-.212-.151-.319-.229q-.5-.365-.987-.794c-.089-.081-.179-.162-.268-.246s-.179-.165-.266-.246q-.327-.314-.637-.654-.122-.13-.243-.268c-.223-.251-.441-.511-.648-.783-.081-.1-.157-.2-.232-.3q-.424-.562-.8-1.171c-.067-.109-.134-.22-.2-.33-.078-.131-.154-.266-.229-.4a15.24,15.24,0,0,1-.76-1.565c-.034-.078-.067-.157-.1-.235-.045-.1-.084-.2-.12-.3q-.084-.222-.159-.444c-.05-.148-.1-.3-.145-.45s-.086-.291-.126-.439-.087-.316-.123-.478c0-.017-.008-.034-.011-.051q-.08-.335-.142-.679c-.056-.3-.1-.609-.134-.92-.014-.1-.023-.2-.031-.293s-.02-.2-.025-.307c-.014-.187-.022-.378-.028-.568,0-.123-.006-.246-.006-.369l1.817,3.572,3.122,1.361,3.692.332h0l2.736.249h.017l2.56.232s0,0,0,0l5.71.515Z" transform="translate(-38.048 -61.201)"/>
    </g>
    <g id="Group_6" data-name="Group 6" class="cls-2" transform="translate(0 0)">
      <path id="Path_114" data-name="Path 114" class="cls-5" d="M63.644,76.9l0,2.753v0l0,.965v.757l0,2.515v0l0,0h0l-.008-.006-10.993-5.6c0-.017-.008-.034-.011-.051q-.08-.335-.142-.679c-.056-.3-.1-.609-.134-.92-.014-.1-.023-.2-.031-.293s-.02-.2-.025-.307c-.014-.187-.022-.378-.028-.568,0-.123-.006-.246-.006-.369v-3.34c0,.048,0,.1,0,.142a11.124,11.124,0,0,0,.4,2.6,11.282,11.282,0,0,0,.713,1.92v0c.732,1.523,1.713,2.557,2.616,2.725.056.008.114.014.17.02a9.827,9.827,0,0,0,1.093.061c1.426,0,2.692-1.146,3.488-1.61l.017-.008c.042-.025.084-.051.12-.076a.2.2,0,0,1,.034-.019,5.649,5.649,0,0,1,2.717-.629Z" transform="translate(-38.047 -52.255)"/>
      <path id="Path_115" data-name="Path 115" class="cls-5" d="M105.466,71.759l0,3.34a13.7,13.7,0,0,1-.223,2.457c-.059.319-.126.634-.2.947l-2.58,3.726-8.368,1.657h0l0,0v0l-.008-6.994H94.1a5.67,5.67,0,0,1,2.719.629.183.183,0,0,1,.031.02c.039.025.081.05.123.075a.062.062,0,0,0,.014.008c.8.464,2.063,1.611,3.488,1.611a9.829,9.829,0,0,0,1.093-.061c.059-.006.114-.011.173-.02.9-.168,1.884-1.2,2.613-2.725v0a11.3,11.3,0,0,0,.713-1.92,11,11,0,0,0,.4-2.641C105.466,71.829,105.466,71.8,105.466,71.759Z" transform="translate(-68.5 -52.251)"/>
    </g>
    <g id="Group_7" data-name="Group 7" class="cls-2">
      <ellipse id="Ellipse_39" data-name="Ellipse 39" class="cls-3" cx="2.788" cy="0.862" rx="2.788" ry="0.862" transform="translate(22.795 27.397)"/>
    </g>
    <g id="Group_8" data-name="Group 8" class="cls-2" transform="translate(0 0)">
      <path id="Path_116" data-name="Path 116" class="cls-5" d="M63.633,10.929h-.011a11.38,11.38,0,0,0-11.37,11.378v5.017s.472-2.994,1.744-4.447c1.381-1.579,1.031-3.98,4.128-3.98,2,0,2.11.738,5.495.738h.016c3.385,0,3.5-.738,5.495-.738,3.1,0,2.747,2.4,4.128,3.98C74.531,24.331,75,27.325,75,27.325V22.307A11.38,11.38,0,0,0,63.633,10.929Z" transform="translate(-38.047 -7.958)"/>
    </g>
    <g id="Group_9" data-name="Group 9" class="cls-2" transform="translate(0 0)">
      <path id="Path_117" data-name="Path 117" class="cls-6" d="M81.478,150.614l-.307.313a10.1,10.1,0,0,1-14.431-.005l-.294-.3c.145-.087.294-.171.442-.252a.009.009,0,0,1,.011,0v0c.12-.067.238-.134.355-.2a8.632,8.632,0,0,0,1-.7l.006.006a7.968,7.968,0,0,0,5.7,2.407h.023a7.984,7.984,0,0,0,5.713-2.4l0,0a7.514,7.514,0,0,0,.618.461c.022.017.042.03.064.045.1.067.2.131.307.2s.232.137.349.2a.279.279,0,0,1,.05.025C81.215,150.461,81.349,150.536,81.478,150.614Z" transform="translate(-48.383 -108.825)"/>
    </g>
  </g>
</svg>
